<?xml version="1.0" standalone="no"?>
<!DOCTYPE svg PUBLIC "-//W3C//DTD SVG 20010904//EN"
 "http://www.w3.org/TR/2001/REC-SVG-20010904/DTD/svg10.dtd">
<svg version="1.0" xmlns="http://www.w3.org/2000/svg"
 width="229.000000pt" height="229.000000pt" viewBox="0 0 229.000000 229.000000"
 preserveAspectRatio="xMidYMid meet">
<metadata>
Created by potrace 1.11, written by Peter Selinger 2001-2013
</metadata>
<g transform="translate(0.000000,229.000000) scale(0.100000,-0.100000)"
fill="#000000" stroke="none">
<path d="M1118 2185 c-2 -1 -40 -5 -84 -9 -155 -12 -338 -79 -477 -176 -424
-292 -571 -857 -344 -1315 151 -305 445 -520 780 -569 85 -13 248 -14 307 -2
14 3 39 8 55 11 60 11 120 28 130 36 5 5 15 9 23 9 24 0 187 85 249 130 216
157 382 431 419 690 10 76 11 246 1 300 -26 142 -52 220 -110 335 -141 281
-434 494 -749 544 -59 10 -195 20 -200 16z"/>
</g>
</svg>
